<svg id="Layer_2" data-name="Layer 2" xmlns="http://www.w3.org/2000/svg" viewBox="0 0 1274.5 802.5"><defs><style>.cls-1{fill:#e4dbe2;}.cls-2{fill:#f2dc56;}</style></defs><title>1</title><path class="cls-1" d="M329,564.75C213.52,600,129.5,707.45,129.5,834.5c0,155.74,126.26,282,282,282s282-126.26,282-282c0-125.83-80.41-232.41-194.21-268.71l-36.54,40.85C567.05,630,645,723.15,645,834.5c0,129-104.54,233.5-233.5,233.5S178,963.46,178,834.5C178,720.77,259.32,626,367,605.24Z" transform="translate(-129.5 -314)"/><path class="cls-1" d="M446,608.09c4-13.17,50.66-165.19,61.17-188.9a2.87,2.87,0,0,1,2.62-1.69h96.35a3.27,3.27,0,0,1,2.56,5.32c-21.86,27.11-120.22,145.51-162.27,185.55A.27.27,0,0,1,446,608.09Z" transform="translate(-129.5 -314)"/><path class="cls-1" d="M385.41,608.09c-4-13.17-50.66-165.19-61.17-188.9a2.86,2.86,0,0,0-2.61-1.69H225.27a3.27,3.27,0,0,0-2.55,5.32C244.57,449.93,343.62,571.75,385,608.37A.27.27,0,0,0,385.41,608.09Z" transform="translate(-129.5 -314)"/><path class="cls-1" d="M346.15,417.5H487.2a1.3,1.3,0,0,1,1.24,1.71c-5.31,16.29-47.47,145.28-71.59,211.5a.11.11,0,0,1-.21,0c-2.77-7.48-59.08-159.44-71.76-211.6A1.31,1.31,0,0,1,346.15,417.5Z" transform="translate(-129.5 -314)"/><path class="cls-1" d="M215.11,396.83c6.14-9.17,35.93-53.58,46.4-66.62a1.25,1.25,0,0,1,2,0c5.13,6.47,29.4,37.67,44.22,66.68a1.26,1.26,0,0,1-1,1.82c-9.09,1.06-51.32,5.4-90.72.06A1.27,1.27,0,0,1,215.11,396.83Z" transform="translate(-129.5 -314)"/><path class="cls-1" d="M614.4,396.83c-6.14-9.17-35.93-53.58-46.4-66.62a1.25,1.25,0,0,0-2,0c-5.13,6.47-29.4,37.67-44.22,66.68a1.26,1.26,0,0,0,1,1.82c9.09,1.06,51.32,5.4,90.72.06A1.27,1.27,0,0,0,614.4,396.83Z" transform="translate(-129.5 -314)"/><path class="cls-1" d="M284.07,318.61a614.49,614.49,0,0,0,43.47,71.25.77.77,0,0,0,1.1.16c4.81-3.65,36.08-28.32,62.64-71.34a.78.78,0,0,0-.66-1.18H284.75A.76.76,0,0,0,284.07,318.61Z" transform="translate(-129.5 -314)"/><path class="cls-1" d="M413.4,326.08c-5.39,5.26-45.6,45-60.22,73.92a1,1,0,0,0,.87,1.39H478.1a1,1,0,0,0,.77-1.53c-6.77-9.13-42.47-56.68-64.21-73.85A1,1,0,0,0,413.4,326.08Z" transform="translate(-129.5 -314)"/><path class="cls-1" d="M440.37,318.25c2.56,5.12,19,35.81,59.78,69.46a.52.52,0,0,0,.68,0c3-2.77,26-24.73,47.31-69.45a.52.52,0,0,0-.47-.75H440.83A.51.51,0,0,0,440.37,318.25Z" transform="translate(-129.5 -314)"/><path class="cls-2" d="M1172,610.47c107.78,21.26,189,115.83,189,229.28,0,129.1-105.21,233.75-235,233.75S891,968.85,891,839.75c0-112.48,79.87-206.4,186.27-228.72l-39.87-41.48C924.88,606,843.5,711.6,843.5,836.25,843.5,991,969,1116.5,1123.75,1116.5S1404,991,1404,836.25c0-124.52-81.21-230.07-193.56-266.58Z" transform="translate(-129.5 -314)"/><path class="cls-2" d="M1038.29,473c11.68,22.32,53.12,99.69,84,158.68a2.79,2.79,0,0,0,4.94,0c12.47-23.59,68.39-129.5,85.34-163.33a4.48,4.48,0,0,0-3.9-6.48c-27.29-.6-126.93-2.33-166.51,3.53A5.22,5.22,0,0,0,1038.29,473Z" transform="translate(-129.5 -314)"/><path class="cls-2" d="M1164.71,605.75c5.59-6.61,118.46-140,152.9-182.53a1,1,0,0,0-.85-1.71c-14.58.57-97,11.58-152.16,184.17C1164.58,605.75,1164.67,605.8,1164.71,605.75Z" transform="translate(-129.5 -314)"/><path class="cls-2" d="M1087,608c-5.59-6.6-118.45-138-152.9-180.53-.57-.7,0-1.88.86-1.71,20.87,4,80.69-4.25,152.15,182.17A.07.07,0,0,1,1087,608Z" transform="translate(-129.5 -314)"/><path class="cls-2" d="M1028.13,439.67a.84.84,0,0,1-.84-.8c-.3-6.64-.75-52.54,44.71-52.54,0,0,65.3-2.84,124.4-.23a8.62,8.62,0,0,1,7.41,4.92c3.56,7.49,9.87,23.91,11.52,48.65Z" transform="translate(-129.5 -314)"/><path class="cls-2" d="M1322.78,392.61a2.93,2.93,0,0,0,.07-3.06C1319.08,383.19,1302.5,358,1276,358c-30.33,0-54.33,17-54.33,29s2.66,44.67,17,44.67C1252.56,431.67,1311.88,409.74,1322.78,392.61Z" transform="translate(-129.5 -314)"/><path class="cls-2" d="M926.33,399a2.53,2.53,0,0,1-1-3.73c6.57-9.52,30.35-43.55,34.65-43.55,5,0,67.24,23,67.24,33.33s-11.88,52.33-16.73,52.33C1006.19,437.33,940.47,405.77,926.33,399Z" transform="translate(-129.5 -314)"/><path class="cls-2" d="M982,341.5s25.5-27.5,135.5-27.5S1261,336.5,1261,336.5s-13.54,22.22-91,29.63a433.75,433.75,0,0,1-88.39-.73C1046.33,361.55,994.41,353.91,982,341.5Z" transform="translate(-129.5 -314)"/></svg>