<svg version="1.2" xmlns="http://www.w3.org/2000/svg" viewBox="0 0 637 319" width="120" height="60">
	<title>5383524-ai</title>
	<style>
		.s0 { fill: #2e2d2a } 
		.s1 { fill: #435143 } 
	</style>
	<g id="OBJECTS">
		<g id="&lt;Group&gt;">
			<g id="&lt;Group&gt;">
				<path id="RingAffinity" class="s0" aria-label="RingAffinity"  d="m85.1 178.2h6.4q4.7 0 6.8-1.7 2.1-1.8 2.1-5.9 0-4-2.1-5.7-2.1-1.8-6.8-1.8h-6.4zm4.3 10.5h-4.3v22.3h-15.2v-58.9h23.2q11.6 0 17 3.9 5.4 3.9 5.4 12.4 0 5.8-2.8 9.6-2.8 3.7-8.5 5.5 3.1 0.7 5.6 3.2 2.5 2.5 5 7.6l8.2 16.7h-16.1l-7.2-14.6q-2.2-4.4-4.4-6.1-2.2-1.6-5.9-1.6zm42 22.3v-44.2h14.2v44.2zm0-49.8v-11.6h14.1v11.6zm72.1 22.9v26.9h-14.2v-4.4-16.2q0-5.7-0.3-7.9-0.3-2.1-0.9-3.2-0.8-1.3-2.2-2.1-1.4-0.8-3.3-0.8-4.4 0-6.9 3.4-2.5 3.4-2.5 9.5v21.7h-14.1v-44.2h14.1v6.5q3.2-3.9 6.8-5.7 3.5-1.8 7.9-1.8 7.6 0 11.6 4.7 4 4.7 4 13.6zm43.1 22.4v-3q-2.9 3.9-6.4 5.7-3.5 1.8-8.2 1.8-8 0-13.3-6.4-5.3-6.3-5.3-16.2 0-9.9 5.3-16.2 5.3-6.4 13.3-6.4 4.7 0 8.2 1.9 3.5 1.8 6.4 5.7v-6.6h14.2v39.7q0 10.7-6.8 16.3-6.7 5.6-19.4 5.6-4.2 0-8-0.6-3.9-0.6-7.8-1.9v-11q3.7 2.1 7.3 3.2 3.5 1 7.1 1 6.9 0 10.2-3.1 3.2-3 3.2-9.5zm-9.3-30.5q-4.4 0-6.8 3.3-2.5 3.2-2.5 9.1 0 6.1 2.4 9.2 2.4 3.1 6.9 3.1 4.4 0 6.9-3.2 2.4-3.2 2.4-9.1 0-5.9-2.4-9.1-2.5-3.3-6.9-3.3zm77.1 35l-3.7-10.7h-23.7l-3.8 10.7h-15.2l21.8-58.9h18.1l21.8 58.9zm-15.6-45.1l-8.1 23.4h16.1zm56.3-16.2h10.8v9.2h-7.8q-3 0-4.2 1.1-1.1 1.1-1.1 3.8v3.1h16.1v-3.1q0-7.2 4-10.7 4.1-3.4 12.5-3.4h10.8v9.2h-7.8q-3 0-4.1 1.1-1.1 1.1-1.1 3.8v3.1h30.2v44.1h-14.3v-34h-15.9v34h-0.2-14.1v-34h-16.1v34h-14.2v-34h-7v-10.1h7v-3.1q0-7.2 4.1-10.7 4-3.4 12.4-3.4zm44 11.5v-11.5h14.3v11.5zm72.2 22.9v26.9h-14.2v-4.4-16.2q0-5.7-0.3-7.9-0.2-2.1-0.9-3.1-0.8-1.4-2.2-2.2-1.4-0.8-3.3-0.8-4.4 0-6.9 3.5-2.5 3.4-2.5 9.4v21.7h-14.1v-44.1h14.1v6.4q3.2-3.8 6.8-5.7 3.5-1.8 7.9-1.8 7.6 0 11.6 4.7 4 4.7 4 13.6zm13.1 26.9v-44.1h14.1v44.1zm0-49.8v-11.5h14.1v11.5zm29-6.9h14.1v12.6h14.5v10.1h-14.5v18.7q0 3.1 1.2 4.2 1.2 1 4.9 1h7.2v10.1h-12.1q-8.3 0-11.9-3.4-3.4-3.6-3.4-11.9v-18.7h-7v-10.1h7zm51.2 58.4l-19.7-45.9h14.1l11.9 30 10.1-30h14.1l-18.6 48.3q-2.8 7.4-6.5 10.4-3.7 2.9-9.9 2.9h-8.1v-9.3h4.4q3.6 0 5.2-1.1 1.7-1.2 2.6-4.1z"/>
			</g>
			<g id="&lt;Group&gt;">
				<g id="&lt;Group&gt;">
					<path id="&lt;Compound Path&gt;" fill-rule="evenodd" class="s1" d="m269.9 138.9c0.4 1.2-0.2 2.4-1.3 2.8q-0.1 0-0.3 0.1c-1 0.2-2.1-0.4-2.4-1.4-13-36.4-44.2-64.3-81.9-73.3l-4.6 6.9c36.1 7.6 66.1 33.3 78.8 68 0.4 1-0.1 2.1-1.1 2.5q-0.2 0-0.3 0.1c-1 0.2-1.9-0.4-2.2-1.3-12.5-33.9-42.1-59-77.6-65.8l-29.3 43.4q-0.2 0.3-0.6 0.6-0.3 0.2-0.7 0.3-0.5 0.1-0.9 0-0.4-0.1-0.8-0.3l-43.4-29.4c-35.2 22.8-53.4 65.4-45.4 106.6 10.8 56.1 65.2 92.8 121.2 81.9 23-4.4 43.1-16.1 58.4-33.6 0.7-0.9 1.9-0.9 2.8-0.2 0.8 0.7 0.8 1.9 0.1 2.7-15.8 18.2-36.7 30.3-60.5 34.9-58.1 11.3-114.6-26.8-125.8-84.9-8.2-42.2 10.1-85.9 45.7-109.7l-6.9-4.7c-36.8 26.1-55 71.4-46.4 115.9 12 62.3 72.5 103.1 134.8 91.1 30.2-5.9 56.3-23.1 73.5-48.6 0.7-1 2-1.3 3-0.6 1 0.7 1.3 2 0.6 3-17.9 26.4-44.9 44.3-76.2 50.4-64.7 12.5-127.4-29.9-140-94.5-8.8-45.6 9.6-92 46.9-119.2l-8.9-6.1q-0.3-0.2-0.6-0.6-0.2-0.3-0.3-0.7-0.1-0.5 0-0.9 0.1-0.4 0.3-0.8l45-66.5c0.6-0.9 2-1.2 3-0.5l66.5 44.9q0.3 0.2 0.6 0.6 0.2 0.3 0.3 0.8 0.1 0.4 0 0.8-0.1 0.4-0.4 0.8l-6 8.9c38.3 9.7 70.1 38.4 83.3 75.6zm-88.5-75.5l4.8-7.1-10.5 2-30.7 45.4 2.1 10.5 34.2-50.8q0.1 0 0.1 0zm-38.6 51.6l-2-10.5-45.4-30.7-10.5 2.1 7.1 4.8q0.1 0 0.1 0zm11.3-54.7l-22.7-15.3-15.3 22.7 22.7 15.3zm-10.3 37.4l25.8-38.2-11.3 2.1-16.7 24.8zm-59.7-26l10.5-2.1 31.1-46.1c0.6-0.9 2-1.2 3-0.5l46.1 31.1 10.5-2-60.4-40.8zm17.3 1l38.2 25.8-2.2-11.3-24.8-16.7zm67.5-17.4l-40.8-27.6-27.5 40.8 11.3-2.2 17.2-25.5c0.6-0.9 2-1.2 3-0.6l25.5 17.2z"/>
				</g>
			</g>
		</g>
	</g>
</svg>